<svg id="Layer_1" data-name="Layer 1" xmlns="http://www.w3.org/2000/svg" viewBox="0 0 823.23 359.5"><defs><style>.cls-1{fill:#002a41;}</style></defs><title>logo_w_txt_banner</title><path class="cls-1" d="M41.09,209S33.83,79.74,25.38,37.42C23.76,29.34,13.1,5.8,13.1,5.8S28,16.52,41.09,16.52C53.87,16.52,66.62,5.8,66.62,5.8s-8.53,23.63-9.83,31.62C49.89,80,41.09,209,41.09,209Z" transform="translate(-13.1 -0.79)"/><path class="cls-1" d="M244.87,106.19S204,116.45,190.56,124.9c-2.55,1.61-10,9.28-10,9.28s9.4-21.09,9.4-28.09c0-6.38-9.4-25.43-9.4-25.43s7.48,5.53,10,6.82C204,94.38,244.87,106.19,244.87,106.19Z" transform="translate(-13.1 -0.79)"/><path class="cls-1" d="M98.7,209S91.45,79.74,83,37.42C81.38,29.34,70.72,5.8,70.72,5.8s14.86,10.72,28,10.72c12.79,0,25.54-10.72,25.54-10.72s-8.53,23.63-9.83,31.62C107.51,80,98.7,209,98.7,209Z" transform="translate(-13.1 -0.79)"/><path class="cls-1" d="M156.32,209s-7.25-129.3-15.7-171.62C139,29.34,128.33,5.8,128.33,5.8s14.87,10.72,28,10.72c12.79,0,25.54-10.72,25.54-10.72S173.33,29.43,172,37.42C165.13,80,156.32,209,156.32,209Z" transform="translate(-13.1 -0.79)"/><path class="cls-1" d="M431.46,9.61a33.1,33.1,0,0,1-3.19,11.57c-2,.39-3.13.58-3.33.58q-5.07,0-12-.58c-4.63-.38-7.72-.58-9.27-.58a9.58,9.58,0,0,0-2.75.29Q398.72,18,381.33,18L357,19.16h-.88a4.62,4.62,0,0,0-2.6.87q-3.33,12.13-4.78,33.55t-1.44,34l.87,16.34-1.94,10a79.88,79.88,0,0,0-1,9.76q-.21,4.84-.21,11.07l1.74,31.09q0,5.5-1.45,6.22,1.31.15,2.61,8.25a116.78,116.78,0,0,0,2.45,12.22,28.78,28.78,0,0,1,1.16,5q0,2-7.66,4.77a2.72,2.72,0,0,1,.29,1.44c0,.78-.29,1.16-.87,1.16s-1.16-.58-1.74-1.73a21.18,21.18,0,0,1-5.06,3.18,3.68,3.68,0,0,0-3.9-2.61c-1,0-2.37.1-4.2.29s-3.18.29-4,.29h-1.15q3-1.59,2.16-10.7c-.28-3.18-.43-5.64-.43-7.38a10.62,10.62,0,0,1,.43-1.3q4.92-12.87,4.92-53.8L331.09,65q0-31.68-2.75-39.63a4.5,4.5,0,0,0,.44-2,4.86,4.86,0,0,0-.58-2.53q-.58-.93-3.18-1.23l-8.68-.72c-4-.39-6.75-.58-8.39-.58q-11.58,0-13.6,3.76a9.45,9.45,0,0,0-4.77-1.45,12.68,12.68,0,0,0-4.84,1.23,20.28,20.28,0,0,1-7.89,1.23,14.43,14.43,0,0,1-9.69-3.32,5.22,5.22,0,0,1-.43-2.32,19.24,19.24,0,0,1,1.37-5.71,19.26,19.26,0,0,0,1.38-6.15V5a10.08,10.08,0,0,1,5.06-1.15q1.88,0,11.5,1.44a141,141,0,0,0,21,1.45h21.7A57.08,57.08,0,0,0,343.24,5l.87-1.88c1.15.39,1.83.82,2,1.31l2.46-.58q1.59,0,4,2.17a34.24,34.24,0,0,0,3.69,3,62.06,62.06,0,0,0,6.5-.72,68.05,68.05,0,0,1,9.55-.72L395.88,7l4.2.58h1.16q2.44,0,8.75-.73a93.58,93.58,0,0,1,10.19-.72Q429.74,6.14,431.46,9.61Z" transform="translate(-13.1 -0.79)"/><path class="cls-1" d="M620.2,7.59Q586.36,61,550.36,141.52l-21.68,48.31v2a19.45,19.45,0,0,1-3.53,10.62q-3.54,5.42-8,5.71-2.73,2.59-12.4,2.6-4.17,0-5.19-3.65L493,184.29q-16.53-56.1-26.4-86.24T448.82,51.77q-8-16.12-9-17.86V30.73q-8.39-11.86-8.39-12.44,0-1.3,3.47-2.89a39.76,39.76,0,0,0,5.21-2.75L445.78,9a10.75,10.75,0,0,0,5.35-2l4.05,2a209.08,209.08,0,0,0,6.92,27.64l10.08,29.66q5.07,14.31,8.11,24,4.63,14,8.12,26.75Q493,134,496.82,142.82l6.38,15.62A67.86,67.86,0,0,0,509,169.72a37.11,37.11,0,0,0,8.1,9.4,27.13,27.13,0,0,0,7.52-6.58,54.83,54.83,0,0,0,7.09-12.66l42.1-93.57Q584.5,42.6,589,31t4.55-15.48c0-.77-.09-1.25-.29-1.44q.15-9.4,8.54-9.41h1.44q1.74,0,5.35-1.95A13.2,13.2,0,0,1,614.27.79Q620.21.79,620.2,7.59Z" transform="translate(-13.1 -0.79)"/><path class="cls-1" d="M833.24,187.36a13.05,13.05,0,0,1,2,5.93,15.46,15.46,0,0,1-4.2,11,13.51,13.51,0,0,1-10.26,4.49,19.67,19.67,0,0,1-9-2.46,99.27,99.27,0,0,0-22.71-2.61H787.4q-7.38,0-23.87,1.6t-25.74,1.59l-6.22-.87-10.27.58q-40.35,0-42.95-6.8-2.91-1.16-8.68-3.11t-6.22-2.53l-3.76-4.63q-11.43-1.44-23.07-18.87T625,115.48q0-23.28,15.76-54.23a26.54,26.54,0,0,0,1.81-5.14A9.16,9.16,0,0,1,646,51q2.67-2,3-3.62,12.28-13.59,14.53-16.7T674,24.22q8.24-3.33,10.84-7.95a2.17,2.17,0,0,1,2.53-1.09,13.11,13.11,0,0,0,2.54.36l1.15-.29a27.4,27.4,0,0,1,2.1-2.38c.72-.73,1.25-1,1.59-.94s4-1.06,11.06-3.47S716.94,5,718.05,5.2,723.32,5,730.56,4L740,2.24a35.88,35.88,0,0,1,7.95,1.08q4.64,1.08,6.22,1.37,26.48,2.76,33.56,8Q797.8,11.93,812.85,35a90.69,90.69,0,0,1,15,50.55q0,25.6-9,46.21t-15.4,30.16a146.57,146.57,0,0,1-13,16.92q-6.64,7.38-6.65,8.82c0,2.41,2.55,3.62,7.67,3.62q5.77,0,7.95-1.74a22.18,22.18,0,0,0,4.19.29l6.8-.29a32.75,32.75,0,0,1,3.83.58,34,34,0,0,0,6.3.58Q828.47,190.69,833.24,187.36ZM792,156.56q17.51-31.82,17.5-58.29a115.53,115.53,0,0,0-4.19-32.4A71.17,71.17,0,0,0,793.18,41.5a63.77,63.77,0,0,0-18.66-16.12q-10.69-6.07-27.26-8.1t-19.74-2a9,9,0,0,0-2.6,1.52A17.27,17.27,0,0,0,721,20.6a11.36,11.36,0,0,1-4.77.87l-4.77-.29a8.6,8.6,0,0,0-8,4.49,1.18,1.18,0,0,1-.87.29c-.48,0-.86-.49-1.15-1.45l-2.17,1.16v2c-.29,0-.63-.34-1-1s-.82-1-1.3-1h-.58q-13.74,4.77-16,7.95A29,29,0,0,1,675,35.21a71.12,71.12,0,0,0-5.28,6.37q-3.54,4.62-5.79,7.3a39,39,0,0,1-4.33,4.48c-1.4,1.21-2.1,3.35-2.1,6.44q-7.53,6.8-12,23A125.21,125.21,0,0,0,641,116.35a82.31,82.31,0,0,0,4.77,28.78q4.79,12.87,11.72,16.2v3a101.56,101.56,0,0,0,9.54,9.69q5.07,4.49,14.76,7.88t16.41,5.35a121,121,0,0,0,15,3.25,106.8,106.8,0,0,0,16.56,1.31q4.92,0,7.81-.29l10.27-2.46c3.09-.68,5.54-1.16,7.38-1.45a66.76,66.76,0,0,0,7.66-4.34l10.42-5.93a6.74,6.74,0,0,0,2.17-1.59,4.27,4.27,0,0,0,.86-2.6V172c.49-1,2.34-2.36,5.57-4.19s5.81-3.28,7.74-4.34,2.89-2.36,2.89-3.91A6.73,6.73,0,0,0,792,156.56Z" transform="translate(-13.1 -0.79)"/><path class="cls-1" d="M59.55,290.05a8.39,8.39,0,0,1-.8,2.89l-.83.14c-.85,0-1.85-.05-3-.14s-1.93-.15-2.31-.15a2.68,2.68,0,0,0-.69.07q-.54-.72-4.89-.72l-6.08.29h-.22a1.15,1.15,0,0,0-.65.22A44.94,44.94,0,0,0,38.88,301q-.36,5.36-.36,8.49l.21,4.08-.48,2.5a20.42,20.42,0,0,0-.26,2.44c0,.8-.05,1.73-.05,2.76l.43,7.77c0,.91-.12,1.43-.36,1.55.22,0,.44.71.65,2.06a28.46,28.46,0,0,0,.62,3.06,7.75,7.75,0,0,1,.29,1.24q0,.51-1.92,1.2a.65.65,0,0,1,.07.36c0,.19-.07.29-.21.29s-.29-.15-.44-.44a5.32,5.32,0,0,1-1.26.8.92.92,0,0,0-1-.65,10.21,10.21,0,0,0-1,.07,9.76,9.76,0,0,1-1,.07h-.29c.51-.26.69-1.16.55-2.67-.08-.8-.11-1.41-.11-1.85a1.56,1.56,0,0,1,.11-.32q1.22-3.21,1.22-13.44l.22-16.51q0-7.92-.69-9.91a1,1,0,0,0,.11-.5,1.23,1.23,0,0,0-.14-.63c-.1-.16-.36-.26-.8-.31l-2.17-.18c-1-.1-1.68-.15-2.09-.15-1.93,0-3.06.32-3.4.94a2.34,2.34,0,0,0-1.19-.36,3,3,0,0,0-1.21.31,5,5,0,0,1-2,.31,3.63,3.63,0,0,1-2.42-.83,1.36,1.36,0,0,1-.11-.58,5,5,0,0,1,.34-1.43,4.86,4.86,0,0,0,.35-1.54v-.14a2.53,2.53,0,0,1,1.26-.29c.31,0,1.27.12,2.87.36a35.74,35.74,0,0,0,5.26.36h5.42a14.32,14.32,0,0,0,3.62-.43l.21-.47q.44.15.51.33l.61-.15a1.68,1.68,0,0,1,1,.54,7.53,7.53,0,0,0,.92.76,15.4,15.4,0,0,0,1.62-.18,17.08,17.08,0,0,1,2.39-.18l5.89-.14,1.05.14H52q.61,0,2.19-.18a23.47,23.47,0,0,1,2.55-.18Q59.12,289.18,59.55,290.05Z" transform="translate(-13.1 -0.79)"/><path class="cls-1" d="M62.37,316.4Q68,305.66,82.64,305.66a29.12,29.12,0,0,1,4.07.25,15.63,15.63,0,0,1,3.3.83,11.27,11.27,0,0,1,2.82,1.56,14.94,14.94,0,0,1,2.51,2.42,25.75,25.75,0,0,1,2.41,3.47c.43.73.65,2.29.65,4.7A19.59,19.59,0,0,1,92.78,333a18.53,18.53,0,0,1-13.9,5.83H78.6c-1.14-.25-1.76-.37-1.88-.37a.29.29,0,0,0-.22.08c-.22.33-1,.5-2.2.5a16.18,16.18,0,0,1-6.06-1.46,13.44,13.44,0,0,1-5.71-4.51,10.67,10.67,0,0,1-2.22-6.4,24.49,24.49,0,0,1,.13-2.58,18.58,18.58,0,0,1,.4-2.46,17.64,17.64,0,0,1,.66-2.23l.87-2.06Zm31.83,5.9v-.95a12.86,12.86,0,0,0-3.77-9.67,13.72,13.72,0,0,0-10-3.68,10.52,10.52,0,0,0-2.57.31,13.5,13.5,0,0,0-1.37.4,2.68,2.68,0,0,0-.63.76,3.45,3.45,0,0,1-.65.8,1.11,1.11,0,0,1-.56.12l-1.85-.21c-.26,0-.44.21-.54.65q-2.74.21-5.16,4.08A15,15,0,0,0,64.68,323a37.91,37.91,0,0,0,.37,3.82,8,8,0,0,0,2.24,4.81,17.25,17.25,0,0,0,4.57,3.26,10.4,10.4,0,0,0,4.35,1.35,3.69,3.69,0,0,0,.87-.1l.32-.11h1.48q4.84,0,6.58-1.49a.72.72,0,0,1,.22-.14,1.81,1.81,0,0,1,.68.22,24.37,24.37,0,0,0,5.91-7.22C93.56,324.86,94.2,323.16,94.2,322.3Z" transform="translate(-13.1 -0.79)"/><path class="cls-1" d="M107.51,316.4q5.64-10.74,20.27-10.74a29,29,0,0,1,4.06.25,15.57,15.57,0,0,1,3.31.83A11.44,11.44,0,0,1,138,308.3a15.33,15.33,0,0,1,2.51,2.42,24.87,24.87,0,0,1,2.4,3.47c.44.73.65,2.29.65,4.7A19.55,19.55,0,0,1,137.91,333,18.49,18.49,0,0,1,124,338.83h-.29c-1.13-.25-1.76-.37-1.88-.37a.29.29,0,0,0-.21.08c-.22.33-1,.5-2.21.5a16.18,16.18,0,0,1-6.05-1.46,13.38,13.38,0,0,1-5.71-4.51,10.67,10.67,0,0,1-2.22-6.4,24.49,24.49,0,0,1,.13-2.58,18.59,18.59,0,0,1,.39-2.46,17.64,17.64,0,0,1,.67-2.23l.87-2.06Zm31.83,5.9v-.95a12.9,12.9,0,0,0-3.77-9.67,13.72,13.72,0,0,0-10-3.68,10.52,10.52,0,0,0-2.57.31,13.5,13.5,0,0,0-1.37.4,2.82,2.82,0,0,0-.64.76,3.2,3.2,0,0,1-.65.8,1.08,1.08,0,0,1-.56.12l-1.84-.21c-.26,0-.44.21-.54.65q-2.75.21-5.17,4.08a15.06,15.06,0,0,0-2.42,8.07c0,.61.12,1.88.36,3.82a8,8,0,0,0,2.24,4.81,17.58,17.58,0,0,0,4.57,3.26,10.47,10.47,0,0,0,4.36,1.35,3.69,3.69,0,0,0,.87-.1l.32-.11H124q4.85,0,6.58-1.49a.72.72,0,0,1,.22-.14,1.81,1.81,0,0,1,.68.22,24.37,24.37,0,0,0,5.91-7.22C138.7,324.86,139.34,323.16,139.34,322.3Z" transform="translate(-13.1 -0.79)"/><path class="cls-1" d="M161.07,336.62a4.67,4.67,0,0,1-.57,1.41,1.69,1.69,0,0,1-1.13.36,1.23,1.23,0,0,1-.8.44c-.19,0-.4-.15-.61-.44a4,4,0,0,1-1.23.8c-1.88-.53-2.82-1.22-2.82-2.06v-.07c.39,0,.58-.35.58-1.05v-.65l-.07-1.2a10.51,10.51,0,0,1,.43-1.69,78.1,78.1,0,0,0,.54-10.37v-7.41l-.07-2.78.07-2.39-.43-8.34.29-5.79-.29-7.48v-1.4a6.85,6.85,0,0,1-.47-2.43l.14-1.55a1.33,1.33,0,0,0-.29-.69,6.4,6.4,0,0,1,.64-3.09,5,5,0,0,1,1.55-1.75,3.28,3.28,0,0,1,1.83-.61c1,0,1.93,1,2.71,3a11.38,11.38,0,0,0-1.34,2.08,7,7,0,0,0-.51,3l.15,4.15L159.22,299l.07,14.13-.14,16.07.07.65c0,.39-.09.64-.29.76a3.58,3.58,0,0,1,.71,2.23,6.05,6.05,0,0,0,.72,2.62C160.73,336,161,336.43,161.07,336.62Z" transform="translate(-13.1 -0.79)"/><path class="cls-1" d="M240.39,289.54A265.84,265.84,0,0,0,222.94,323l-5.41,12.07v.51a4.85,4.85,0,0,1-.89,2.65,2.69,2.69,0,0,1-2,1.43c-.45.43-1.49.65-3.09.65a1.2,1.2,0,0,1-1.3-.92l-1.63-5.7q-4.14-14-6.59-21.55a93,93,0,0,0-4.46-11.56c-1.32-2.69-2.07-4.17-2.24-4.46v-.8a33.15,33.15,0,0,1-2.09-3.11q0-.31.87-.72a10.38,10.38,0,0,0,1.3-.68l1.41-.91a2.71,2.71,0,0,0,1.33-.5l1,.5a53.69,53.69,0,0,0,1.73,6.91l2.52,7.41q1.26,3.57,2,6,1.16,3.51,2,6.68a52.48,52.48,0,0,0,2.1,6.44l1.59,3.9a16.59,16.59,0,0,0,1.45,2.82,9.06,9.06,0,0,0,2,2.34,6.78,6.78,0,0,0,1.88-1.64,13.52,13.52,0,0,0,1.77-3.16l10.52-23.38q2.67-5.93,3.81-8.82a13.88,13.88,0,0,0,1.13-3.86.57.57,0,0,0-.07-.36c0-1.57.73-2.35,2.13-2.35h.36a3.38,3.38,0,0,0,1.34-.49,3.22,3.22,0,0,1,1.41-.49C239.9,287.84,240.39,288.41,240.39,289.54Z" transform="translate(-13.1 -0.79)"/><path class="cls-1" d="M253.33,338.46c0,.15-.52.43-1.56.85a8,8,0,0,1-2,.64h-.22a3.61,3.61,0,0,0-.92.14,3.53,3.53,0,0,1-.78.14,1.84,1.84,0,0,1-1.24-.48q-.54-.5-.54-.78a14.22,14.22,0,0,1,.29-2.37,5.19,5.19,0,0,1,.9-2.36,81.59,81.59,0,0,0,.29-8.49l-.29-13.12.07-2.28a3.47,3.47,0,0,0-.59-1.33,4.49,4.49,0,0,1-.6-2.39,1.39,1.39,0,0,1,.45-1.17,12.23,12.23,0,0,1,2.09-1l2.08-.91a1.12,1.12,0,0,1,.43-.07c.61,0,.91.94.91,2.82q0,1.59-.56,8.26T251,325.35c0,1.56,0,3,.13,4.42s.17,2.44.27,3.17a5.32,5.32,0,0,0,.65,2,7.39,7.39,0,0,1,1,3.4Zm-1.66-46a11.65,11.65,0,0,0,1.88,1.05c.87.41,1.3.9,1.3,1.48a2.43,2.43,0,0,1-.94,1.68,2.78,2.78,0,0,1-1.88.89,3.26,3.26,0,0,1-2.22-1.2,5.66,5.66,0,0,1-1.17-1.37,2.55,2.55,0,0,1,1-1.59,2.87,2.87,0,0,1,1.93-.94Z" transform="translate(-13.1 -0.79)"/><path class="cls-1" d="M280.51,320.18a7.88,7.88,0,0,1,2.82,6.07,13.4,13.4,0,0,1-2.84,8.33,11.13,11.13,0,0,1-7.31,4.46c-.65,0-1.57,0-2.75.15a7.45,7.45,0,0,1-2.82.54,5.23,5.23,0,0,1-3.07-.8c-.74-.53-1.12-1.57-1.12-3.14a6.62,6.62,0,0,1,.07-1.05h.29a2.73,2.73,0,0,1,1.38.38,2.35,2.35,0,0,0,.83.38l.21-.07c.82.79,2.21,1.19,4.16,1.19a12.58,12.58,0,0,0,5.06-1,6.61,6.61,0,0,0,3.38-3.31,9.94,9.94,0,0,0,1.1-4.16,5.64,5.64,0,0,0-2-4.45q-2-1.77-9.2-4a3.16,3.16,0,0,1-1.41-.47l-1.66-1.45a5.33,5.33,0,0,1-1.73-2.24l-.37-1.12c0-3.8,1.11-6.51,3.31-8.11s6-2.4,11.4-2.4l2,.11a3,3,0,0,0,.73-.18,2.2,2.2,0,0,1,.58,1.62,6.51,6.51,0,0,1-.4,2.26c-.27.71-.54,1.13-.83,1.25a2.72,2.72,0,0,0-.76-1h-.07a.67.67,0,0,0-.33.13,1.85,1.85,0,0,1-.32.16,5.44,5.44,0,0,0-4.23-1.92c-3.25,0-5.4.63-6.43,1.87a6.29,6.29,0,0,0-1.56,4.14c0,2.19,1.75,3.7,5.24,4.51a46.18,46.18,0,0,1,6.25,1.93C279.71,319.52,280.51,320,280.51,320.18Z" transform="translate(-13.1 -0.79)"/><path class="cls-1" d="M301.33,338.46c0,.15-.52.43-1.56.85a8,8,0,0,1-2,.64h-.22a3.61,3.61,0,0,0-.92.14,3.53,3.53,0,0,1-.78.14,1.82,1.82,0,0,1-1.24-.48q-.54-.5-.54-.78a14.22,14.22,0,0,1,.29-2.37,5.19,5.19,0,0,1,.9-2.36,81.59,81.59,0,0,0,.29-8.49l-.29-13.12.07-2.28a3.39,3.39,0,0,0-.6-1.33,4.58,4.58,0,0,1-.59-2.39,1.39,1.39,0,0,1,.45-1.17,12.23,12.23,0,0,1,2.09-1l2.08-.91a1.12,1.12,0,0,1,.43-.07c.61,0,.91.94.91,2.82q0,1.59-.56,8.26T299,325.35c0,1.56,0,3,.13,4.42s.17,2.44.27,3.17a5.32,5.32,0,0,0,.65,2,7.39,7.39,0,0,1,1,3.4Zm-1.66-46a11.65,11.65,0,0,0,1.88,1.05c.87.41,1.3.9,1.3,1.48a2.43,2.43,0,0,1-.94,1.68,2.78,2.78,0,0,1-1.88.89,3.26,3.26,0,0,1-2.22-1.2,5.66,5.66,0,0,1-1.17-1.37,2.55,2.55,0,0,1,1-1.59,2.87,2.87,0,0,1,1.93-.94Z" transform="translate(-13.1 -0.79)"/><path class="cls-1" d="M321.68,305.76c.17-.33.8-.6,1.9-.81a15.8,15.8,0,0,1,2.69-.31l5.57.44a16.88,16.88,0,0,1,5.13,1.17,22,22,0,0,1,4.8,2.8,9.07,9.07,0,0,1,2.79,4.05,15,15,0,0,1,1,5.38q0,8.38-8.31,13.77a1.37,1.37,0,0,0-.58.61,1.27,1.27,0,0,1-.39.51c-.53.34-1,.6-1.34.79a10.53,10.53,0,0,1-1.52.64,21.41,21.41,0,0,1-2.18.63c-.81.19-1.72.38-2.73.58a3,3,0,0,0-.74.38,1.89,1.89,0,0,1-.63.3.29.29,0,0,1-.22-.07,29.13,29.13,0,0,0-4.37,1.63l-.44-.47a2.47,2.47,0,0,0-1.73,1.19c0,.38-.26.74-.78,1.07a3.48,3.48,0,0,1-1.86.48,1.39,1.39,0,0,1-1.08-.36,1.64,1.64,0,0,0-1.23-.36,6.81,6.81,0,0,0-.87.15v-.15a2.59,2.59,0,0,0-.27-1.06,2.66,2.66,0,0,1-.27-.78c0-.24.35-.65,1.05-1.21s1-1,1-1.25v-.07q.94-10.26.94-20.42,0-19.11-1.08-27.31a3.75,3.75,0,0,1-.76-1.41l.07-.83c0-.19,0-.64-.1-1.34a16.82,16.82,0,0,1-.11-1.91c0-.85.3-1.32.92-1.41a12.48,12.48,0,0,0,1.52-.33,5.51,5.51,0,0,1,.66-.18,1.93,1.93,0,0,1,.65.16,2.48,2.48,0,0,0,.73.18,8.41,8.41,0,0,1,1.88,1.14,12.16,12.16,0,0,1,.36,2.13.92.92,0,0,1-.07.47c0,.1-.1.32-.22.65q-1.49,4.05-1.48,12.43a46.54,46.54,0,0,0,.3,6.58c.21,1.16.58,1.73,1.11,1.73Zm-.65,3.33q-.69,15.65-.68,19.76c0,2.34.35,3.91,1,4.7a4.62,4.62,0,0,0,3.62,1.19,20.9,20.9,0,0,0,5.91-1.06,15.77,15.77,0,0,0,6.3-3.76,15,15,0,0,0,3.78-5.17,13.94,13.94,0,0,0,.95-5,9.63,9.63,0,0,0-3.93-7.64,13,13,0,0,0-8.35-3.24h-1.3l-2.6-.14a4.58,4.58,0,0,0-2.82.94,1.57,1.57,0,0,0-1.34-.87A.65.65,0,0,0,321,309.09Z" transform="translate(-13.1 -0.79)"/><path class="cls-1" d="M363.32,338.46c0,.15-.53.43-1.57.85a8,8,0,0,1-2,.64h-.22a3.61,3.61,0,0,0-.92.14,3.53,3.53,0,0,1-.78.14,1.84,1.84,0,0,1-1.24-.48q-.54-.5-.54-.78a14.22,14.22,0,0,1,.29-2.37,5.19,5.19,0,0,1,.9-2.36,81.59,81.59,0,0,0,.29-8.49l-.29-13.12.07-2.28a3.47,3.47,0,0,0-.59-1.33,4.49,4.49,0,0,1-.6-2.39,1.39,1.39,0,0,1,.45-1.17,12.06,12.06,0,0,1,2.1-1l2.07-.91a1.12,1.12,0,0,1,.43-.07c.61,0,.91.94.91,2.82,0,1.06-.18,3.81-.56,8.26s-.56,8.05-.56,10.82c0,1.56,0,3,.13,4.42s.17,2.44.27,3.17a5.5,5.5,0,0,0,.65,2,7.39,7.39,0,0,1,1,3.4Zm-1.67-46a11.65,11.65,0,0,0,1.88,1.05c.87.41,1.3.9,1.3,1.48a2.43,2.43,0,0,1-.94,1.68,2.76,2.76,0,0,1-1.88.89,3.28,3.28,0,0,1-2.22-1.2,5.66,5.66,0,0,1-1.17-1.37,2.55,2.55,0,0,1,1-1.59,2.87,2.87,0,0,1,1.93-.94Z" transform="translate(-13.1 -0.79)"/><path class="cls-1" d="M384,336.62a4.48,4.48,0,0,1-.56,1.41,1.69,1.69,0,0,1-1.13.36,1.23,1.23,0,0,1-.8.44c-.19,0-.4-.15-.61-.44a4.16,4.16,0,0,1-1.23.8c-1.88-.53-2.82-1.22-2.82-2.06v-.07c.38,0,.58-.35.58-1.05v-.65l-.07-1.2a10.51,10.51,0,0,1,.43-1.69,78.1,78.1,0,0,0,.54-10.37v-7.41l-.07-2.78.07-2.39-.43-8.34.29-5.79-.29-7.48v-1.4a6.63,6.63,0,0,1-.47-2.43l.14-1.55a1.33,1.33,0,0,0-.29-.69,6.29,6.29,0,0,1,.64-3.09,5,5,0,0,1,1.55-1.75,3.25,3.25,0,0,1,1.82-.61c1,0,1.94,1,2.71,3a11.31,11.31,0,0,0-1.33,2.08,7,7,0,0,0-.51,3l.15,4.15L382.11,299l.07,14.13L382,329.21l.07.65a.84.84,0,0,1-.29.76,3.58,3.58,0,0,1,.71,2.23,6.05,6.05,0,0,0,.72,2.62C383.62,336,383.86,336.43,384,336.62Z" transform="translate(-13.1 -0.79)"/><path class="cls-1" d="M405,338.46c0,.15-.52.43-1.56.85a8.16,8.16,0,0,1-2,.64h-.21a3.67,3.67,0,0,0-.93.14,3.35,3.35,0,0,1-.78.14,1.8,1.8,0,0,1-1.23-.48c-.37-.33-.55-.59-.55-.78a15.4,15.4,0,0,1,.29-2.37,5.19,5.19,0,0,1,.9-2.36,78.78,78.78,0,0,0,.29-8.49L399,312.63l.08-2.28a3.39,3.39,0,0,0-.6-1.33,4.49,4.49,0,0,1-.6-2.39,1.36,1.36,0,0,1,.46-1.17,11.83,11.83,0,0,1,2.09-1l2.07-.91a1.18,1.18,0,0,1,.44-.07q.9,0,.9,2.82,0,1.59-.55,8.26t-.57,10.82c0,1.56.05,3,.13,4.42s.18,2.44.27,3.17a5.5,5.5,0,0,0,.65,2,7.27,7.27,0,0,1,1,3.4Zm-1.67-46a12.12,12.12,0,0,0,1.88,1.05c.87.41,1.3.9,1.3,1.48a2.45,2.45,0,0,1-.93,1.68,2.8,2.8,0,0,1-1.88.89,3.3,3.3,0,0,1-2.23-1.2,5.66,5.66,0,0,1-1.17-1.37,2.55,2.55,0,0,1,1-1.59,2.89,2.89,0,0,1,1.94-.94Z" transform="translate(-13.1 -0.79)"/><path class="cls-1" d="M433.76,306.85c0,.14.17.27.43.37a3.8,3.8,0,0,0,.44.17H435a3.78,3.78,0,0,1,2.06.53,1.5,1.5,0,0,1,.87,1.22c0,.48-.34.95-1,1.4l-.43-.47a2.31,2.31,0,0,1-1.74,1.11l-.22-.43-.43.14a7.79,7.79,0,0,0-3.25-.72l-3.4.15c-.48,0-1.2-.05-2.17-.15a89.66,89.66,0,0,0-.94,11c0,1,.06,2.14.17,3.45a12.46,12.46,0,0,0,.63,3.23c.31.83.63,1.59.94,2.29a6.46,6.46,0,0,0,1.59,2.08,8.19,8.19,0,0,0,2.08,1.47,5.07,5.07,0,0,1,1.66,1.21c.47.52,1.69.78,3.67.78h.72q.69.54.69.9a2.74,2.74,0,0,1-.53,1.23c-.35.55-.62,1-.83,1.41a5.09,5.09,0,0,1-1,1.26H434a.32.32,0,0,1-.29-.21,8,8,0,0,1-2.24-.29c0,.05,0,.07-.08.07a1.11,1.11,0,0,1-.34-.2,3.23,3.23,0,0,0-.52-.31,2.24,2.24,0,0,0-1.05-.9,10.41,10.41,0,0,1-3-1.7,16.77,16.77,0,0,1-2.87-3.18,10.6,10.6,0,0,1-1.86-3.8,35.46,35.46,0,0,1-.61-4.18c-.16-1.63-.24-3.37-.24-5.23a86,86,0,0,1,.69-10.35l-.76-.25-.22.47h-.5l-.15-.47c-5.59-.21-8.38-.75-8.38-1.6a1,1,0,0,1,.52-.84,7,7,0,0,1,3.05-.38h1.41l1.52-.36a5.51,5.51,0,0,0,1.63-.65,5.72,5.72,0,0,0,1.39-1.15c.4-.46.76-2.06,1.1-4.81a41.68,41.68,0,0,0,.33-5.38v-1.49a5.74,5.74,0,0,1,.5-1.95,5.62,5.62,0,0,1,1.25-2c.49-.49.85-.73,1.06-.73a4.69,4.69,0,0,1,1.52.27,4.55,4.55,0,0,1,.91.38,1.89,1.89,0,0,1,.25.56,2,2,0,0,0,.36.71v.14c0,.1-.09.17-.27.22a1,1,0,0,0-.34.14.87.87,0,0,0-.13.15c0,.05-.21.7-.53,1.95s-.57,2.51-.79,3.76-.39,2.48-.51,3.68-.18,2.4-.18,3.58a9.22,9.22,0,0,0,.22,2.85.69.69,0,0,0,.61.33,4.62,4.62,0,0,0,.93-.24,4.66,4.66,0,0,1,1.35-.23,1.65,1.65,0,0,1,.54.07l.44.91a2.1,2.1,0,0,0,.57.07,4.92,4.92,0,0,0,1.54-.49A8.46,8.46,0,0,1,433.76,306.85Z" transform="translate(-13.1 -0.79)"/><path class="cls-1" d="M472.25,306.2a1.52,1.52,0,0,1,1-.36,10.1,10.1,0,0,1,2,.36q1.44.36,1.44,1.05a2.36,2.36,0,0,1-1.26,1.84c-.32,0-1.58,2-3.8,6l-6,10.81a22.25,22.25,0,0,0-3,8.2c-.22,1.83-.76,3.05-1.63,3.65l-.21.9a1.36,1.36,0,0,0-.94.72q-5.25,12.08-6.4,14.92a15.34,15.34,0,0,0-1.24,4.41q-.09,1.56-1.56,1.56h-.4a9.82,9.82,0,0,0-3.23-.44l-.22.08c-.38,0-.57-.21-.57-.62,0-.12.07-.21.22-.29a26.51,26.51,0,0,1,2.67-3.83.4.4,0,0,1-.33-.39,10.94,10.94,0,0,1,1.7-3,92.43,92.43,0,0,0,7-12.4,1.2,1.2,0,0,1-.22-.72,1.23,1.23,0,0,0-.65-.14h-.19c-.51,0-.85-.63-1-1.88a10.49,10.49,0,0,0-.46-2.2,61.33,61.33,0,0,1-3.34-6.85q-1.71-4.07-3.55-7.73c-1.22-2.45-2.1-4.31-2.61-5.59a12.47,12.47,0,0,0-1.95-3.31,4,4,0,0,1-1.18-2.33v-.39a1,1,0,0,1-.43.07c-.34,0-.51-.07-.51-.22a7.4,7.4,0,0,1,1.16-1.68,9.15,9.15,0,0,1,2.6-2.29c.72.29,1.28.53,1.66.72s.83,1.36,1.34,3.51l.79,2.85v1.19q1.38,2.64,3.58,7.45l1.12,2.42,1.08,2.26c.34.68.7,1.33,1.07,1.95s.75,1.18,1.14,1.71c.6.82.93,1.28,1,1.38a6,6,0,0,0,.59,1,7.3,7.3,0,0,0,1.61,1.53l2.83-6.39q3.57-8.08,4.64-9.88a17.67,17.67,0,0,0,1.61-3.34,32.14,32.14,0,0,0,.95-3.42,12.63,12.63,0,0,1,.68-2.4,1,1,0,0,1,1-.54Z" transform="translate(-13.1 -0.79)"/><path class="cls-1" d="M555.62,334.45a3.28,3.28,0,0,1,.51,1.48,3.87,3.87,0,0,1-1,2.75,3.37,3.37,0,0,1-2.57,1.12,4.91,4.91,0,0,1-2.24-.61,24.41,24.41,0,0,0-5.67-.65h-.43q-1.84,0-6,.39c-2.74.27-4.89.4-6.43.4l-1.55-.22-2.57.15q-10.08,0-10.73-1.7c-.48-.19-1.2-.45-2.17-.78a6,6,0,0,1-1.55-.63l-.94-1.15q-2.85-.37-5.76-4.72t-2.91-13.78q0-5.82,3.94-13.55a6.38,6.38,0,0,0,.45-1.29,2.25,2.25,0,0,1,.87-1.28,1.79,1.79,0,0,0,.74-.9c2-2.27,3.26-3.66,3.63-4.18a6.26,6.26,0,0,1,2.62-1.6,5.27,5.27,0,0,0,2.71-2,.54.54,0,0,1,.63-.27,3.31,3.31,0,0,0,.63.09l.29-.07a6.29,6.29,0,0,1,.53-.6q.27-.27.39-.24a20.77,20.77,0,0,0,2.77-.86,10.89,10.89,0,0,1,3.05-.82,16.52,16.52,0,0,0,3.13-.3l2.35-.44a8.91,8.91,0,0,1,2,.27c.77.18,1.29.3,1.56.35,4.4.46,7.2,1.12,8.38,2,1.68-.13,3.78,1.74,6.29,5.58A22.68,22.68,0,0,1,554.28,309,28.52,28.52,0,0,1,552,320.56a53.19,53.19,0,0,1-3.85,7.53,37.78,37.78,0,0,1-3.25,4.23,7.55,7.55,0,0,0-1.67,2.21q0,.9,1.92.9a3.42,3.42,0,0,0,2-.43,6.57,6.57,0,0,0,1,.07l1.7-.07a6.85,6.85,0,0,1,1,.14,8.26,8.26,0,0,0,1.57.14A5.4,5.4,0,0,0,555.62,334.45Zm-10.3-7.69q4.38-8,4.38-14.56a28.76,28.76,0,0,0-1.05-8.1,17.76,17.76,0,0,0-3-6.09,16.11,16.11,0,0,0-4.66-4,18.32,18.32,0,0,0-6.81-2c-2.76-.34-4.4-.5-4.93-.5a2.19,2.19,0,0,0-.65.37,4.68,4.68,0,0,0-1,1,2.75,2.75,0,0,1-1.19.22l-1.19-.07a2.14,2.14,0,0,0-2,1.12.29.29,0,0,1-.22.07c-.12,0-.21-.12-.29-.36l-.54.29v.5c-.07,0-.16-.08-.25-.25s-.21-.25-.33-.25h-.14c-2.29.79-3.63,1.45-4,2a7.42,7.42,0,0,1-1.34.4,18,18,0,0,0-1.32,1.59q-.88,1.16-1.44,1.83a10.67,10.67,0,0,1-1.09,1.12,2,2,0,0,0-.52,1.6,12,12,0,0,0-3,5.75,31.14,31.14,0,0,0-1.12,8.38,20.65,20.65,0,0,0,1.19,7.19c.8,2.15,1.77,3.5,2.93,4.05v.76a25.92,25.92,0,0,0,2.38,2.42,11.26,11.26,0,0,0,3.69,2c1.61.56,3,1,4.1,1.34a31.85,31.85,0,0,0,3.76.81,26.24,26.24,0,0,0,4.14.32c.81,0,1.46,0,2-.07l2.56-.61c.77-.17,1.39-.29,1.85-.36a18,18,0,0,0,1.91-1.09l2.6-1.48a1.58,1.58,0,0,0,.54-.4,1,1,0,0,0,.22-.65v-.29a3.8,3.8,0,0,1,1.39-1l1.93-1.09a1.13,1.13,0,0,0,.73-1A1.63,1.63,0,0,0,545.32,326.76Z" transform="translate(-13.1 -0.79)"/><path class="cls-1" d="M590.1,305.62a4.58,4.58,0,0,1,1.77-.72l2.2-.47h.26c.48,0,.72.61.72,1.84l-1.19,3.9a24.42,24.42,0,0,0-.83,3.72,24,24,0,0,0-.26,3.4,26,26,0,0,0,.26,3.52,6.41,6.41,0,0,0,1.3,3.2,1.5,1.5,0,0,1,.07.47,2.89,2.89,0,0,1-.6,1.25,4.23,4.23,0,0,0-.59,2.36,17.93,17.93,0,0,0,.3,2.59c.21,1.19.32,1.92.33,2.2a1.1,1.1,0,0,0,.54.8c.35.25.52.44.52.56s-.19.36-.57.5c-.1,1.18-.15,1.91-.15,2.17,0,.89.12,1.39.36,1.48a11,11,0,0,1-3.72,1c-1,0-1.48-.41-1.48-1.22a3.25,3.25,0,0,1,.25-1.05,1.37,1.37,0,0,1-.1-.58,2.46,2.46,0,0,1,.19-1.08,1.69,1.69,0,0,0,.2-.8,13.48,13.48,0,0,0-.21-2c-.15-.87-.6-1.3-1.34-1.3-.56,0-1.59.68-3.11,2.06a30.45,30.45,0,0,1-6.07,4.37,4.15,4.15,0,0,0-1.48.76q-5.13.79-5.35.79a4.38,4.38,0,0,1-2.33-1,13.7,13.7,0,0,1-2.31-2,8.92,8.92,0,0,1-1.56-3.12,16,16,0,0,1-.66-4.76q0-1.15.9-8t1.41-9.78q.51-2.94.51-3.09a2.76,2.76,0,0,0-.26-.9l-.29-.58v-.14q0-.26.36-.36a12.45,12.45,0,0,0,1.39-.62,4,4,0,0,1,1.6-.5,4.18,4.18,0,0,1,1,.25,4.31,4.31,0,0,0,1.31.25h.22a2.82,2.82,0,0,1,.9,1.12l-.76.87a9.11,9.11,0,0,0-2.63,5.56L570,320.25a40.31,40.31,0,0,0-.67,5.78c0,3.38.65,5.85,2,7.41s2.6,2.35,3.88,2.35l.61-.07,1.09.07A6.3,6.3,0,0,0,579,335a47.64,47.64,0,0,0,4.68-2.93,16.3,16.3,0,0,0,3.76-3.11,10.51,10.51,0,0,0,1.17-2.53,18.65,18.65,0,0,0,.76-3.52,34.78,34.78,0,0,0,.25-4.41,79,79,0,0,0-.27-8.18c-.18-1.41-.49-2.26-.92-2.55s-.47-.88-.47-1.91a4.53,4.53,0,0,0,.81-.38.82.82,0,0,1,.46-.17A1.72,1.72,0,0,1,590.1,305.62Z" transform="translate(-13.1 -0.79)"/><path class="cls-1" d="M629.92,319.13a1.4,1.4,0,0,1-.48.8,3.44,3.44,0,0,0-.67.9,8.25,8.25,0,0,0-.29,2.12c-.07,1.14-.11,2.83-.11,5.07l.15,4.88a.91.91,0,0,1-.33.69,8.25,8.25,0,0,0-.07,1.33,17,17,0,0,0,.43,3.4l.4,1.91-.07,1.78.07,1.55c-1.74,1.73-3,2.6-3.87,2.6a1.89,1.89,0,0,1-.68-.25,2.12,2.12,0,0,0-.94-.26h-.22a6.7,6.7,0,0,1-.29-1.8,7.45,7.45,0,0,1,.83-3.4c.27-.34.47-.6.6-.79a6.18,6.18,0,0,0,.2-2.17c0-1.37-.15-2.06-.44-2.06a2.46,2.46,0,0,0-.45.14,2.16,2.16,0,0,1-.81.15h-.29a1.19,1.19,0,0,0-.54.76,28.24,28.24,0,0,0-4.74,1.62,12.13,12.13,0,0,1-4,.73,12.29,12.29,0,0,1-3.83-.56,7.44,7.44,0,0,1-2.86-1.67,10.59,10.59,0,0,1-1.5-1.64,5.13,5.13,0,0,1-.34-2.35l.07-.9v-.29q0-3.62,5.62-7.59a26.41,26.41,0,0,1,10.5-4.81,13.75,13.75,0,0,0,2-.45,2.66,2.66,0,0,0,1.21-.77,4.14,4.14,0,0,0,.49-2.5q0-6.42-6.79-8.74a3.87,3.87,0,0,1-.6-.29,1.46,1.46,0,0,0-.67-.22,49.63,49.63,0,0,0-5.85.29,3.8,3.8,0,0,1-2.89,1.48c-.8,0-1.2-.27-1.2-.83,0,0,.18-.53.53-1.53a2.34,2.34,0,0,1,2.51-1.5q2.28-1.23,8.31-1.23a8.7,8.7,0,0,1,7.52,3.76q2.67,3.75,2.67,10.73v.5a1.65,1.65,0,0,0,1,.69c.48.15.72.36.72.65ZM622.81,332a9.67,9.67,0,0,0,2.27-5.49,8.15,8.15,0,0,0-.74-3.22,2.88,2.88,0,0,0-2.94-1.73,10.78,10.78,0,0,0-6.94,2.13h-.9q-5.56,3.08-5.57,6.5a4.88,4.88,0,0,0,2.3,4.07,8.94,8.94,0,0,0,5.33,1.64,13.22,13.22,0,0,0,3-.68,10.32,10.32,0,0,0,4.16-2.57Z" transform="translate(-13.1 -0.79)"/><path class="cls-1" d="M659.2,307.32a23.87,23.87,0,0,1,3.94-.4q9.83,0,9.83,12.29A66.38,66.38,0,0,1,670.73,335a25.73,25.73,0,0,0-1,5.16,1.25,1.25,0,0,0,.15.58,2.46,2.46,0,0,1-2.64,2.24,4.16,4.16,0,0,1-2.37-.72,2,2,0,0,1-1.06-1.52,5,5,0,0,1,1.52-3c1-1.18,1.93-3.48,2.78-6.9a43.22,43.22,0,0,0,1.26-10.34q0-10.65-8.74-10.66a15,15,0,0,0-6.45,1.41q-3,1.41-3.45,3.11a3.76,3.76,0,0,1-1,.72c-.38.19-.61.37-.66.53s-.19,2-.38,5.47-.29,6.14-.29,7.95v1.7a6.48,6.48,0,0,0,.45,2.45,7,7,0,0,1,.45,1.31l-.07,1.26a3.69,3.69,0,0,1-.42,1.9,1.22,1.22,0,0,1-1.06.7h-.15l-.22.51a2.14,2.14,0,0,0-.61-.15,2.48,2.48,0,0,0-1.3.58h-.18c-.27,0-.68-.31-1.23-.94-.79,0-1.19-.3-1.19-.9a1.92,1.92,0,0,1,.5-1.34c.32,0,.68-1.58,1.09-4.75a97,97,0,0,0,.61-12q0-9.47-1.55-10.8l-.07-.65a1.88,1.88,0,0,1,1.59-1.85,2.15,2.15,0,0,0,1.17-1c.35-.53.72-.8,1.1-.8h.07a4.19,4.19,0,0,0,1.25-.36,2.87,2.87,0,0,1,.6-.25c.33,0,.5.47.5,1.41a8.34,8.34,0,0,1-.43,2.47,8.29,8.29,0,0,0-.43,1.76,1.29,1.29,0,0,0,.37.93,1.28,1.28,0,0,0,1,.4h.22a8,8,0,0,1,1.08-1h.11a8.29,8.29,0,0,0,5.24-1.41l.8-.13a4.11,4.11,0,0,1,.61-.09A3.12,3.12,0,0,0,659.2,307.32Z" transform="translate(-13.1 -0.79)"/><path class="cls-1" d="M702,306.85c0,.14.17.27.43.37a3.8,3.8,0,0,0,.44.17h.39a3.81,3.81,0,0,1,2.06.53,1.5,1.5,0,0,1,.87,1.22c0,.48-.34.95-1,1.4l-.44-.47a2.28,2.28,0,0,1-1.73,1.11l-.22-.43-.43.14a7.83,7.83,0,0,0-3.25-.72l-3.4.15c-.48,0-1.2-.05-2.17-.15a89.66,89.66,0,0,0-.94,11c0,1,.06,2.14.17,3.45a11.67,11.67,0,0,0,.63,3.23c.31.83.62,1.59.94,2.29a6.46,6.46,0,0,0,1.59,2.08,8,8,0,0,0,2.08,1.47,5.07,5.07,0,0,1,1.66,1.21q.71.78,3.66.78h.73c.45.36.68.66.68.9a2.69,2.69,0,0,1-.52,1.23c-.35.55-.63,1-.83,1.41a5.33,5.33,0,0,1-1,1.26h-.15a.31.31,0,0,1-.28-.21,8,8,0,0,1-2.24-.29c0,.05,0,.07-.08.07a1,1,0,0,1-.34-.2,3.73,3.73,0,0,0-.52-.31,2.24,2.24,0,0,0-1-.9,10.28,10.28,0,0,1-3-1.7,16.44,16.44,0,0,1-2.87-3.18,10.6,10.6,0,0,1-1.86-3.8,37.46,37.46,0,0,1-.62-4.18c-.15-1.63-.23-3.37-.23-5.23a86,86,0,0,1,.69-10.35L689,310l-.22.47h-.51l-.14-.47c-5.59-.21-8.38-.75-8.38-1.6a1,1,0,0,1,.52-.84,7,7,0,0,1,3.05-.38h1.41l1.52-.36a5.61,5.61,0,0,0,1.63-.65,5.72,5.72,0,0,0,1.39-1.15c.4-.46.76-2.06,1.1-4.81a41.73,41.73,0,0,0,.32-5.38v-1.49a5.81,5.81,0,0,1,.51-1.95,5.62,5.62,0,0,1,1.25-2c.49-.49.85-.73,1.06-.73a4.74,4.74,0,0,1,1.52.27,4.06,4.06,0,0,1,.9.38,1.61,1.61,0,0,1,.26.56,1.89,1.89,0,0,0,.36.71v.14c0,.1-.09.17-.27.22a1.15,1.15,0,0,0-.35.14.79.79,0,0,0-.12.15c0,.05-.21.7-.53,1.95s-.57,2.51-.79,3.76-.39,2.48-.51,3.68-.18,2.4-.18,3.58a8.88,8.88,0,0,0,.22,2.85.69.69,0,0,0,.61.33,4.44,4.44,0,0,0,.92-.24,4.78,4.78,0,0,1,1.36-.23,1.65,1.65,0,0,1,.54.07l.43.91a2.24,2.24,0,0,0,.58.07,4.92,4.92,0,0,0,1.54-.49A8.46,8.46,0,0,1,702,306.85Z" transform="translate(-13.1 -0.79)"/><path class="cls-1" d="M721.94,338.46c0,.15-.52.43-1.56.85a8.15,8.15,0,0,1-2,.64h-.22a3.74,3.74,0,0,0-.93.14,3.35,3.35,0,0,1-.78.14,1.8,1.8,0,0,1-1.23-.48c-.36-.33-.55-.59-.55-.78a15.4,15.4,0,0,1,.29-2.37,5.3,5.3,0,0,1,.91-2.36,81.59,81.59,0,0,0,.29-8.49l-.29-13.12.07-2.28a3.39,3.39,0,0,0-.6-1.33,4.58,4.58,0,0,1-.59-2.39,1.39,1.39,0,0,1,.45-1.17,11.83,11.83,0,0,1,2.09-1l2.07-.91a1.18,1.18,0,0,1,.44-.07c.61,0,.91.94.91,2.82q0,1.59-.56,8.26c-.38,4.44-.56,8.05-.56,10.82,0,1.56,0,3,.12,4.42s.18,2.44.28,3.17a5.32,5.32,0,0,0,.65,2,7.39,7.39,0,0,1,1,3.4Zm-1.66-46a11.22,11.22,0,0,0,1.88,1.05c.86.41,1.3.9,1.3,1.48a2.47,2.47,0,0,1-.94,1.68,2.78,2.78,0,0,1-1.88.89,3.26,3.26,0,0,1-2.22-1.2,5.58,5.58,0,0,1-1.18-1.37,2.53,2.53,0,0,1,1-1.59,2.85,2.85,0,0,1,1.93-.94Z" transform="translate(-13.1 -0.79)"/><path class="cls-1" d="M762.13,273.21a1.72,1.72,0,0,1,1.26,1,3.07,3.07,0,0,1,.44,1.39c0,.65-.39,1.09-1.16,1.33V277q0,1.15-1.59,1.41a2.21,2.21,0,0,0-1.84-.76c-.2,0-.36.18-.51.54a9.54,9.54,0,0,0-1.26-.14c-1.11,0-1.7.26-1.77.79h-.65q-2.38,0-3,.9c-.17.12-.7.44-1.59.94a13.49,13.49,0,0,0-2.17,1.5,14.92,14.92,0,0,0-2.11,2.7,27.09,27.09,0,0,0-2.44,4.89,24,24,0,0,0-1.46,4.91c-.21,1.32-.51,2.83-.9,4.54a23.89,23.89,0,0,0-.6,3c0,2.17.63,3.25,1.88,3.25a1.87,1.87,0,0,0,.58-.07.94.94,0,0,0,.79.47,1.44,1.44,0,0,0,.42-.09,2,2,0,0,1,.86,0,7.91,7.91,0,0,0,1.18.09,15.63,15.63,0,0,0,2.91-.45,16.08,16.08,0,0,1,3.3-.45,7.41,7.41,0,0,1,.94.12c.48.09.75.23.8.43s.13.66.25,1.36h-.07c-.27,0-.71.4-1.34,1.19a2.58,2.58,0,0,0-.5-.5.93.93,0,0,1-1,.57c-.34,0-1.13-.05-2.37-.18s-2.32-.18-3.23-.18c-.29,0-.68,0-1.18.08s-.84.07-1.06.07a8.15,8.15,0,0,1-1.09-.15,1.3,1.3,0,0,1-.54.15,1.94,1.94,0,0,1-.58-.15c0,.2-.09.29-.28.29l-.15-.07q-.61,0-.61,8.06v4q0,3.57.48,8.31c.33,3.15.54,4.89.64,5.22a2.54,2.54,0,0,0,.65,1,2.29,2.29,0,0,0-.07.69,4.85,4.85,0,0,0,.37,1.61,4.5,4.5,0,0,1,.38,1.49v.22c-.74.48-1.54,1-2.38,1.63a2,2,0,0,1-1.7,1H739c-.2-.21-.5-.57-.93-1.08s-.8-.76-1.13-.76l-.29.07a4,4,0,0,1-.47-1.4q0-.23.63-.93a3.32,3.32,0,0,0,.63-2.25l-.07-.84.15-3.36q.13-3.75.14-7.58t-.29-8c-.19-2.8-.29-4.51-.29-5.11l.07-1.45q0-.39-.9-.39a2.85,2.85,0,0,0-.47.07,2.81,2.81,0,0,1-.54.07,1.07,1.07,0,0,1-.47-.07.45.45,0,0,0-.29.47c-.14-.31-.31-.47-.51-.47l-.75.07c-.05,0-.17-.09-.37-.29V308c0-.34.27-.67.8-1a7.85,7.85,0,0,0,1.12-.83h.69a1.22,1.22,0,0,0,.5-1h.29a1.1,1.1,0,0,0,.94-.49,9.44,9.44,0,0,0,.74-3.09c.25-1.73.42-3.17.49-4.33a35,35,0,0,1,3.16-9.77,34.1,34.1,0,0,1,3.74-6,20.63,20.63,0,0,1,4.23-3.75c1.71-1.16,2.88-1.75,3.5-1.75h.4a4.44,4.44,0,0,1,2.78-1.15l1-.69C760.24,273.91,761.89,273.57,762.13,273.21Z" transform="translate(-13.1 -0.79)"/><path class="cls-1" d="M767.74,338.46c0,.15-.53.43-1.57.85a8,8,0,0,1-2,.64H764a3.61,3.61,0,0,0-.92.14,3.53,3.53,0,0,1-.78.14,1.84,1.84,0,0,1-1.24-.48q-.54-.5-.54-.78a14.22,14.22,0,0,1,.29-2.37,5.19,5.19,0,0,1,.9-2.36,81.59,81.59,0,0,0,.29-8.49l-.29-13.12.07-2.28a3.47,3.47,0,0,0-.59-1.33,4.49,4.49,0,0,1-.6-2.39,1.39,1.39,0,0,1,.45-1.17,12.06,12.06,0,0,1,2.1-1l2.07-.91a1.12,1.12,0,0,1,.43-.07c.61,0,.91.94.91,2.82,0,1.06-.18,3.81-.56,8.26s-.56,8.05-.56,10.82c0,1.56,0,3,.13,4.42s.17,2.44.27,3.17a5.5,5.5,0,0,0,.65,2,7.39,7.39,0,0,1,1,3.4Zm-1.67-46a11.65,11.65,0,0,0,1.88,1.05c.87.41,1.3.9,1.3,1.48a2.43,2.43,0,0,1-.94,1.68,2.76,2.76,0,0,1-1.88.89,3.28,3.28,0,0,1-2.22-1.2A5.66,5.66,0,0,1,763,295a2.55,2.55,0,0,1,1-1.59,2.87,2.87,0,0,1,1.93-.94Z" transform="translate(-13.1 -0.79)"/><path class="cls-1" d="M806.22,315.59a1.11,1.11,0,0,1,.29.83,2,2,0,0,1-.57,1.56s.07.09.07.21c0,.39-.52.58-1.56.58H804a.63.63,0,0,0-.44.25c-.14.17-.25.26-.32.26a1.36,1.36,0,0,1-.34-.22,2.17,2.17,0,0,0-.93-.29l-.43-.43a6.1,6.1,0,0,1-1.55.22,11.91,11.91,0,0,1-1.61-.15,11.35,11.35,0,0,0-1.5-.14,13.3,13.3,0,0,0-1.68.21,13.28,13.28,0,0,1-2.26.22l-3.54-.14a24.12,24.12,0,0,0-5.17.5,2.79,2.79,0,0,1-.95.27c-.43.06-.65.25-.69.58s-.28.58-.74.78a11.39,11.39,0,0,0-.36,2.67,22,22,0,0,0,.54,3.58,9.11,9.11,0,0,0,1.44,3.76c.15.16,1.18.94,3.11,2.31a14,14,0,0,0,4,2.08,15.88,15.88,0,0,0,5,.7,26.74,26.74,0,0,0,2.79-.18l1.51-.18h2.35a3.48,3.48,0,0,0,1.36-.65,2.11,2.11,0,0,1,1.41,4,3,3,0,0,1-2.37,1.27l-.76-.15-2.28.08h-2a46.39,46.39,0,0,1-6.75-1.16,21.19,21.19,0,0,1-7.95-3,10.88,10.88,0,0,1-3.76-4.86,15.31,15.31,0,0,1-1.19-5.76,21.9,21.9,0,0,1,1.44-7.64,19.81,19.81,0,0,1,3.29-6,23.6,23.6,0,0,1,5.6-4.47,7.4,7.4,0,0,0,1.1-.74,2.43,2.43,0,0,1,1.43-.56l1.19.07a7.94,7.94,0,0,1,2.73-.85,20.41,20.41,0,0,1,3.2-.34,9.26,9.26,0,0,1,4.82,1.63c1.75,1.08,2.8,3.35,3.16,6.79a7.61,7.61,0,0,0,.31,1.46,4.93,4.93,0,0,1,.2.64A1.12,1.12,0,0,1,806.22,315.59Zm-14.81-7.91a7.12,7.12,0,0,1-2.06,1.19,14.9,14.9,0,0,0-1.73,1.48c-.56.56-1.1,1.15-1.63,1.79s-1,1.21-1.39,1.72l-.92,1.14a1.08,1.08,0,0,0-.33.66c0,.27.17.46.51.58l.47.18H787l12.58-.47c1.61,0,2.42-.71,2.42-2.13a8.3,8.3,0,0,0-.89-3.92q-.89-1.68-4.64-2.65c-.29,0-.7,0-1.23-.08s-.92-.07-1.16-.07A22.91,22.91,0,0,0,791.41,307.68Z" transform="translate(-13.1 -0.79)"/><path class="cls-1" d="M836.33,310.71a2.85,2.85,0,0,1-.51,1.21,6.17,6.17,0,0,0-.68,1.59,3.28,3.28,0,0,1-.94,1.5h-.91a6.52,6.52,0,0,0-2.78-1.12,5.77,5.77,0,0,0-2.13.76,8.38,8.38,0,0,0-2.85,2.69,13.51,13.51,0,0,0-1.77,3.06,6.27,6.27,0,0,1-1.16,2.6v1.19a6,6,0,0,0-.58,2.59,10.6,10.6,0,0,1,.11,1.24,3.11,3.11,0,0,1-.07.76,1.26,1.26,0,0,0-.44.87,23.41,23.41,0,0,0,.38,3.18,8.31,8.31,0,0,0,1.25,3.47v.32c0,1.09-.45,1.63-1.34,1.63l-.72.72c-.6,0-1.25.07-2,.07a7,7,0,0,1-2.35-.36v-.14a10.35,10.35,0,0,1,.6-2.86,10.58,10.58,0,0,0,.59-2.85l.22-8.49a124.8,124.8,0,0,0-1.08-17.46c-.08-.53-.11-.83-.11-.9a2.27,2.27,0,0,1,1.32-2.09,4.86,4.86,0,0,1,2.29-.73,3.24,3.24,0,0,1,1.63.44c0,.09.14.26.27.5a1.5,1.5,0,0,1,.2.47V305a10.32,10.32,0,0,1-.64,2.42,15.22,15.22,0,0,0-.63,4.77l.07,4.44v.65c0,.36.33.61,1,.76a15.92,15.92,0,0,1,3.63-5.29,12.52,12.52,0,0,1,5.22-2.8,20.76,20.76,0,0,1,3.94-.87c.63.43.94.83.94,1.19Z" transform="translate(-13.1 -0.79)"/></svg>