<?xml version="1.0" encoding="utf-8"?>
<!-- Generator: Adobe Illustrator 23.1.0, SVG Export Plug-In . SVG Version: 6.00 Build 0)  -->
<svg version="1.1" id="Layer_1" xmlns="http://www.w3.org/2000/svg" xmlns:xlink="http://www.w3.org/1999/xlink" x="0px" y="0px"
	 viewBox="0 0 844.85 216" style="enable-background:new 0 0 844.85 216;" xml:space="preserve">
<style type="text/css">
	.st0{fill:#00AEEF;}
	.st1{fill:#001A29;}
	.st2{font-family:'TempusSansITC';}
	.st3{font-size:296.2012px;}
</style>
<path class="st0" d="M41.09,209.04c0,0-7.26-129.3-15.71-171.62C23.76,29.34,13.1,5.8,13.1,5.8s14.86,10.72,27.99,10.72
	c12.79,0,25.53-10.72,25.53-10.72s-8.53,23.64-9.82,31.62C49.89,80.02,41.09,209.04,41.09,209.04z"/>
<path class="st0" d="M244.87,106.19c0,0-40.92,10.26-54.31,18.71c-2.56,1.61-10.01,9.28-10.01,9.28s9.4-21.09,9.4-28.08
	c0-6.38-9.4-25.44-9.4-25.44s7.48,5.53,10.01,6.82C204.04,94.38,244.87,106.19,244.87,106.19z"/>
<path class="st0" d="M98.7,209.04c0,0-7.26-129.3-15.71-171.62C81.38,29.34,70.72,5.8,70.72,5.8S85.58,16.52,98.7,16.52
	c12.79,0,25.53-10.72,25.53-10.72s-8.53,23.64-9.82,31.62C107.51,80.02,98.7,209.04,98.7,209.04z"/>
<path class="st0" d="M156.32,209.04c0,0-7.26-129.3-15.71-171.62C139,29.34,128.33,5.8,128.33,5.8s14.86,10.72,27.99,10.72
	c12.79,0,25.53-10.72,25.53-10.72s-8.53,23.64-9.82,31.62C165.13,80.02,156.32,209.04,156.32,209.04z"/>
<text transform="matrix(1 0 0 1 257.6179 204.2836)" class="st1 st2 st3">TVQ</text>
</svg>
